<?xml version="1.0" encoding="UTF-8" standalone="no"?>
<!DOCTYPE svg PUBLIC "-//W3C//DTD SVG 1.1//EN" "http://www.w3.org/Graphics/SVG/1.1/DTD/svg11.dtd">
<svg width="100%" height="100%" viewBox="0 0 500 500" version="1.1" xmlns="http://www.w3.org/2000/svg" xmlns:xlink="http://www.w3.org/1999/xlink" xml:space="preserve" xmlns:serif="http://www.serif.com/" style="fill-rule:evenodd;clip-rule:evenodd;stroke-linejoin:round;stroke-miterlimit:2;">
    <g transform="matrix(0,-1,1,0,-0,482.827586)">
        <g transform="matrix(0.666667,0,0,1.689189,-41.172414,-192.567568)">
            <rect x="36" y="114" width="3" height="296" style="fill:white;"/>
        </g>
        <g transform="matrix(0.666667,0,0,1.689189,10.344828,-192.567568)">
            <rect x="36" y="114" width="3" height="296" style="fill:white;"/>
        </g>
        <g transform="matrix(0.666667,0,0,1.689189,27.517241,-192.567568)">
            <rect x="36" y="114" width="3" height="296" style="fill:white;"/>
        </g>
        <g transform="matrix(0.666667,0,0,1.689189,44.689655,-192.567568)">
            <rect x="36" y="114" width="3" height="296" style="fill:white;"/>
        </g>
        <g transform="matrix(0.666667,0,0,1.689189,388.137931,-192.567568)">
            <rect x="36" y="114" width="3" height="296" style="fill:white;"/>
        </g>
        <g transform="matrix(0.666667,0,0,1.689189,370.965517,-192.567568)">
            <rect x="36" y="114" width="3" height="296" style="fill:white;"/>
        </g>
        <g transform="matrix(0.666667,0,0,1.689189,353.793103,-192.567568)">
            <rect x="36" y="114" width="3" height="296" style="fill:white;"/>
        </g>
        <g transform="matrix(0.666667,0,0,1.689189,319.448276,-192.567568)">
            <rect x="36" y="114" width="3" height="296" style="fill:white;"/>
        </g>
        <g transform="matrix(0.666667,0,0,1.689189,302.275862,-192.567568)">
            <rect x="36" y="114" width="3" height="296" style="fill:white;"/>
        </g>
        <g transform="matrix(0.666667,0,0,1.689189,285.103448,-192.567568)">
            <rect x="36" y="114" width="3" height="296" style="fill:white;"/>
        </g>
        <g transform="matrix(0.666667,0,0,1.689189,147.724138,-192.567568)">
            <rect x="36" y="114" width="3" height="296" style="fill:white;"/>
        </g>
        <g transform="matrix(0.666667,0,0,1.689189,456.827586,-192.567568)">
            <rect x="36" y="114" width="3" height="296" style="fill:white;"/>
        </g>
        <g transform="matrix(0.666667,0,0,1.689189,233.586207,-192.567568)">
            <rect x="36" y="114" width="3" height="296" style="fill:white;"/>
        </g>
        <g transform="matrix(0.666667,0,0,1.689189,216.413793,-192.567568)">
            <rect x="36" y="114" width="3" height="296" style="fill:white;"/>
        </g>
        <g transform="matrix(0.666667,0,0,1.689189,199.241379,-192.567568)">
            <rect x="36" y="114" width="3" height="296" style="fill:white;"/>
        </g>
        <g transform="matrix(0.666667,0,0,1.689189,182.068966,-192.567568)">
            <rect x="36" y="114" width="3" height="296" style="fill:white;"/>
        </g>
        <g transform="matrix(0.666667,0,0,1.689189,267.931034,-192.567568)">
            <rect x="36" y="114" width="3" height="296" style="fill:white;"/>
        </g>
        <g transform="matrix(0.666667,0,0,1.689189,405.310345,-192.567568)">
            <rect x="36" y="114" width="3" height="296" style="fill:white;"/>
        </g>
        <g transform="matrix(0.666667,0,0,1.689189,439.655172,-192.567568)">
            <rect x="36" y="114" width="3" height="296" style="fill:white;"/>
        </g>
        <g transform="matrix(0.666667,0,0,1.689189,-24,-192.567568)">
            <rect x="36" y="114" width="3" height="296" style="fill:white;"/>
        </g>
        <g transform="matrix(0.666667,0,0,1.689189,113.37931,-192.567568)">
            <rect x="36" y="114" width="3" height="296" style="fill:white;"/>
        </g>
        <g transform="matrix(0.666667,0,0,1.689189,96.206897,-192.567568)">
            <rect x="36" y="114" width="3" height="296" style="fill:white;"/>
        </g>
        <g transform="matrix(0.666667,0,0,1.689189,61.862069,-192.567568)">
            <rect x="36" y="114" width="3" height="296" style="fill:white;"/>
        </g>
        <g transform="matrix(0.666667,0,0,1.689189,130.551724,-192.567568)">
            <rect x="36" y="114" width="3" height="296" style="fill:white;"/>
        </g>
        <g transform="matrix(0,0.666667,-1.689189,0,675.395154,-24)">
            <rect x="36" y="114" width="3" height="296" style="fill:white;"/>
        </g>
        <g transform="matrix(0,0.666667,-1.689189,0,675.395154,27.517241)">
            <rect x="36" y="114" width="3" height="296" style="fill:white;"/>
        </g>
        <g transform="matrix(0,0.666667,-1.689189,0,675.395154,44.689655)">
            <rect x="36" y="114" width="3" height="296" style="fill:white;"/>
        </g>
        <g transform="matrix(0,0.666667,-1.689189,0,675.395154,61.862069)">
            <rect x="36" y="114" width="3" height="296" style="fill:white;"/>
        </g>
        <g transform="matrix(0,0.666667,-1.689189,0,675.395154,405.310345)">
            <rect x="36" y="114" width="3" height="296" style="fill:white;"/>
        </g>
        <g transform="matrix(0,0.666667,-1.689189,0,675.395154,388.137931)">
            <rect x="36" y="114" width="3" height="296" style="fill:white;"/>
        </g>
        <g transform="matrix(0,0.666667,-1.689189,0,675.395154,370.965517)">
            <rect x="36" y="114" width="3" height="296" style="fill:white;"/>
        </g>
        <g transform="matrix(0,0.666667,-1.689189,0,675.395154,336.62069)">
            <rect x="36" y="114" width="3" height="296" style="fill:white;"/>
        </g>
        <g transform="matrix(0,0.666667,-1.689189,0,675.395154,319.448276)">
            <rect x="36" y="114" width="3" height="296" style="fill:white;"/>
        </g>
        <g transform="matrix(0,0.666667,-1.689189,0,675.395154,302.275862)">
            <rect x="36" y="114" width="3" height="296" style="fill:white;"/>
        </g>
        <g transform="matrix(0,0.666667,-1.689189,0,675.395154,164.896552)">
            <rect x="36" y="114" width="3" height="296" style="fill:white;"/>
        </g>
        <g transform="matrix(0,0.666667,-1.689189,0,675.395154,474)">
            <rect x="36" y="114" width="3" height="296" style="fill:white;"/>
        </g>
        <g transform="matrix(0,0.666667,-1.689189,0,675.395154,250.758621)">
            <rect x="36" y="114" width="3" height="296" style="fill:white;"/>
        </g>
        <g transform="matrix(0,0.666667,-1.689189,0,675.395154,233.586207)">
            <rect x="36" y="114" width="3" height="296" style="fill:white;"/>
        </g>
        <g transform="matrix(0,0.666667,-1.689189,0,675.395154,216.413793)">
            <rect x="36" y="114" width="3" height="296" style="fill:white;"/>
        </g>
        <g transform="matrix(0,0.666667,-1.689189,0,675.395154,199.241379)">
            <rect x="36" y="114" width="3" height="296" style="fill:white;"/>
        </g>
        <g transform="matrix(0,0.666667,-1.689189,0,675.395154,285.103448)">
            <rect x="36" y="114" width="3" height="296" style="fill:white;"/>
        </g>
        <g transform="matrix(0,0.666667,-1.689189,0,675.395154,422.482759)">
            <rect x="36" y="114" width="3" height="296" style="fill:white;"/>
        </g>
        <g transform="matrix(0,0.666667,-1.689189,0,675.395154,456.827586)">
            <rect x="36" y="114" width="3" height="296" style="fill:white;"/>
        </g>
        <g transform="matrix(0,0.666667,-1.689189,0,675.395154,-6.827586)">
            <rect x="36" y="114" width="3" height="296" style="fill:white;"/>
        </g>
        <g transform="matrix(0,0.666667,-1.689189,0,675.395154,130.551724)">
            <rect x="36" y="114" width="3" height="296" style="fill:white;"/>
        </g>
        <g transform="matrix(0,0.666667,-1.689189,0,675.395154,113.37931)">
            <rect x="36" y="114" width="3" height="296" style="fill:white;"/>
        </g>
        <g transform="matrix(0,0.666667,-1.689189,0,675.395154,79.034483)">
            <rect x="36" y="114" width="3" height="296" style="fill:white;"/>
        </g>
        <g transform="matrix(0,0.666667,-1.689189,0,675.395154,147.724138)">
            <rect x="36" y="114" width="3" height="296" style="fill:white;"/>
        </g>
    </g>
</svg>
